<svg width="88" height="69" viewBox="0 0 88 69" fill="none" xmlns="http://www.w3.org/2000/svg">
<mask id="mask0" mask-type="alpha" maskUnits="userSpaceOnUse" x="0" y="0" width="88" height="69">
<rect width="88" height="69" transform="matrix(1 0 0 -1 0 69)" fill="white"/>
</mask>
<g mask="url(#mask0)">
<path d="M78.2726 66.9858V32.0226C80.6908 30.9706 82.8154 29.3435 84.4613 27.283C86.1072 25.2225 87.2246 22.791 87.7163 20.2001C88.2079 17.6091 88.0589 14.9373 87.2823 12.4171C86.5057 9.89687 85.1249 7.60464 83.2601 5.73988C81.3954 3.87512 79.1031 2.49433 76.5829 1.71769C74.0627 0.941043 71.3909 0.792072 68.7999 1.28374C66.209 1.77541 63.7775 2.89282 61.717 4.53872C59.6565 6.18463 58.0294 8.30916 56.9774 10.7274H5.44928C4.16168 10.7274 2.92682 11.2389 2.01635 12.1494C1.10589 13.0598 0.594391 14.2947 0.594391 15.5823V66.9858V85.5C0.0398521 85.5 -9.11562 86.5363 -9.11538 86.7873V94.8788C-9.11538 95.7372 -8.77439 96.5604 -8.16741 97.1674C-7.56043 97.7744 -6.73719 98.1154 -5.87879 98.1154H84.7458C85.6042 98.1154 86.4274 97.7744 87.0344 97.1674C87.6414 96.5604 87.9824 95.7372 87.9824 94.8788V86.7873C87.9851 86.5369 78.3818 86.2254 78.2726 86V66.9858ZM34.5786 88.4056H44.2884V90.0239H34.5786V88.4056ZM3.83098 85.169L3.21279 68.9861H75.6542V85.169H3.83098ZM71.7994 4.25423C73.9599 4.25069 76.0869 4.78787 77.9866 5.81682C79.8863 6.84578 81.4983 8.33379 82.6756 10.1452C83.853 11.9567 84.5584 14.034 84.7274 16.1879C84.8964 18.3417 84.5237 20.5036 83.6432 22.4765C82.7628 24.4495 81.4026 26.1707 79.6866 27.4833C77.9707 28.796 75.9535 29.6583 73.8189 29.9918C71.6843 30.3253 69.5002 30.1192 67.4657 29.3925C65.4311 28.6657 63.6108 27.4414 62.1705 25.831C62.0188 25.6614 61.8329 25.5258 61.6252 25.433C61.4175 25.3401 61.1925 25.2921 60.9649 25.2921H56.7395L59.0052 21.1719C59.1953 20.8266 59.2528 20.4238 59.167 20.0391C58.7353 18.1444 58.7367 16.1767 59.1711 14.2826C59.6055 12.3886 60.4617 10.6169 61.6759 9.0997C62.8901 7.58249 64.431 6.35882 66.1838 5.51986C67.9366 4.6809 69.8562 4.24828 71.7994 4.25423ZM3.83098 15.5823C3.83098 15.1531 4.00148 14.7415 4.30497 14.438C4.60846 14.1345 5.02008 13.964 5.44928 13.964H55.9401C55.5224 15.9964 55.5048 18.0906 55.8883 20.1297L52.5789 26.1287C52.4429 26.3753 52.3736 26.6531 52.3778 26.9346C52.382 27.2162 52.4596 27.4918 52.603 27.7341C52.7463 27.9765 52.9504 28.1773 53.1951 28.3166C53.4398 28.456 53.7166 28.5291 53.9981 28.5287H60.2658C62.1525 30.4588 64.4931 31.8849 67.0735 32.6765C69.6538 33.4681 72.3915 33.5999 75.036 33.0599V65.7495H3.83098V15.5823ZM-5.87879 94.8788V88.4056H31.342V90.0239C31.342 90.8823 31.683 91.7055 32.29 92.3125C32.897 92.9195 33.7202 93.2605 34.5786 93.2605H44.2884C45.1468 93.2605 45.97 92.9195 46.577 92.3125C47.184 91.7055 47.525 90.8823 47.525 90.0239V88.4056H84.7458V94.8788H-5.87879Z" fill="#1C9EC6"/>
</g>
<path d="M73.3365 22.1538H69.9711C69.5249 22.1538 69.0969 21.985 68.7813 21.6845C68.4657 21.3839 68.2885 20.9763 68.2885 20.5513H64.9231C64.9231 21.8264 65.4549 23.0492 66.4016 23.9508C67.3483 24.8525 68.6323 25.359 69.9711 25.359V26.9615H73.3365V25.359C74.6754 25.359 75.9594 24.8525 76.9061 23.9508C77.8528 23.0492 78.3846 21.8264 78.3846 20.5513C78.3846 19.2762 77.8528 18.0534 76.9061 17.1517C75.9594 16.2501 74.6754 15.7436 73.3365 15.7436H69.9711C69.5249 15.7436 69.0969 15.5748 68.7813 15.2742C68.4657 14.9737 68.2885 14.5661 68.2885 14.141C68.2885 13.716 68.4657 13.3084 68.7813 13.0078C69.0969 12.7073 69.5249 12.5385 69.9711 12.5385H73.3365C73.7828 12.5385 74.2108 12.7073 74.5264 13.0078C74.8419 13.3084 75.0192 13.716 75.0192 14.141H78.3846C78.3846 12.866 77.8528 11.6431 76.9061 10.7415C75.9594 9.83986 74.6754 9.33334 73.3365 9.33334V7.73077H69.9711V9.33334C68.6323 9.33334 67.3483 9.83986 66.4016 10.7415C65.4549 11.6431 64.9231 12.866 64.9231 14.141C64.9231 15.4161 65.4549 16.639 66.4016 17.5406C67.3483 18.4422 68.6323 18.9487 69.9711 18.9487H73.3365C73.7828 18.9487 74.2108 19.1176 74.5264 19.4181C74.8419 19.7186 75.0192 20.1263 75.0192 20.5513C75.0192 20.9763 74.8419 21.3839 74.5264 21.6845C74.2108 21.985 73.7828 22.1538 73.3365 22.1538Z" fill="#32BCAD"/>
<path d="M46.9744 20.2308H11.7179C11.2929 20.2308 10.8853 20.4038 10.5848 20.7119C10.2842 21.0199 10.1154 21.4377 10.1154 21.8734V58.0112C10.1154 58.4469 10.2842 58.8647 10.5848 59.1727C10.8853 59.4808 11.2929 59.6539 11.7179 59.6539H46.9744C47.3994 59.6539 47.807 59.4808 48.1075 59.1727C48.4081 58.8647 48.5769 58.4469 48.5769 58.0112V21.8734C48.5769 21.4377 48.4081 21.0199 48.1075 20.7119C47.807 20.4038 47.3994 20.2308 46.9744 20.2308ZM45.3718 30.0865H24.5385V23.516H45.3718V30.0865ZM32.5513 33.3718H37.359V56.3686H32.5513V33.3718ZM29.3462 56.3686H24.5385V33.3718H29.3462V56.3686ZM21.3333 23.516V30.0865H13.3205V23.516H21.3333ZM13.3205 33.3718H21.3333V56.3686H13.3205V33.3718ZM40.5641 56.3686V33.3718H45.3718V56.3686H40.5641Z" fill="#32BCAD"/>
<path d="M55.3077 36.5769H58.1923V39.4615H55.3077V36.5769Z" fill="#32BCAD"/>
<path d="M62.0385 36.5769H68.7692V39.4615H62.0385V36.5769Z" fill="#32BCAD"/>
<path d="M55.3077 43.3077H68.7692V46.1923H55.3077V43.3077Z" fill="#32BCAD"/>
<path d="M55.3077 49.0769H68.7692V52.9231H55.3077V49.0769Z" fill="#32BCAD"/>
</svg>
