<svg width="67" height="71" viewBox="0 0 67 71" fill="none" xmlns="http://www.w3.org/2000/svg">
<path d="M33.4575 0C29.7616 0 26.163 1.26438 23.3424 3.69589C23.0506 3.98767 22.7589 4.37671 22.7589 4.76575C22.7589 5.15479 22.8561 5.6411 23.1479 5.93288C23.4397 6.22466 23.8287 6.51644 24.2178 6.51644C24.6068 6.51644 25.0931 6.41918 25.3849 6.1274C27.6219 4.27945 30.5397 3.20959 33.4575 3.20959C40.4602 3.20959 46.1986 8.94795 46.1986 15.9507C46.1986 22.9534 40.4602 28.6918 33.4575 28.6918C26.4548 28.6918 20.7164 22.9534 20.7164 15.9507C20.7164 13.5192 21.3972 11.1849 22.7589 9.14247C22.9534 8.75342 23.0506 8.36438 23.0506 7.97534C22.9534 7.5863 22.7589 7.19726 22.3698 7.00274C21.689 6.51644 20.6191 6.71096 20.1328 7.48904C18.4794 10.0178 17.6041 13.0329 17.6041 16.0479C17.6041 24.8014 24.7041 31.9014 33.4575 31.9014C42.2109 31.9014 49.3109 24.8014 49.3109 16.0479C49.3109 7.29452 42.2109 0 33.4575 0Z" fill="#32BCAD"/>
<path d="M33.4575 19.6465C32.6795 19.6465 32.0959 19.063 32.0959 18.2849C32.0959 17.7013 31.6096 17.215 31.026 17.215C30.4425 17.215 29.9562 17.7013 29.9562 18.2849C29.9562 19.7438 30.9288 21.1054 32.3877 21.4945V23.0506C32.3877 23.7315 32.874 24.1205 33.4575 24.1205C34.0411 24.1205 34.5274 23.7315 34.5274 23.0506V21.4945C35.9863 21.0082 36.9589 19.7438 36.9589 18.1876C36.9589 16.3397 35.4028 14.7835 33.5548 14.7835C32.7767 14.7835 32.1932 14.2 32.1932 13.4219C32.1932 12.6438 32.7767 12.0602 33.5548 12.0602C34.3329 12.0602 34.9164 12.6438 34.9164 13.4219C34.9164 13.7137 35.0137 14.0054 35.2082 14.2C35.4028 14.3945 35.6945 14.4917 35.8891 14.4917C36.4726 14.4917 36.9589 14.0054 36.9589 13.4219C36.9589 11.963 35.9863 10.6013 34.5274 10.2123V8.65612C34.5274 7.29448 32.4849 7.29448 32.4849 8.65612V10.2123C31.026 10.6986 30.0534 11.963 30.0534 13.4219C30.0534 15.2698 31.6096 16.826 33.4575 16.826C34.2356 16.826 34.8192 17.4095 34.8192 18.1876C34.8192 18.9657 34.2356 19.6465 33.4575 19.6465Z" fill="#32BCAD"/>
<path d="M13.1301 45.7123C13.7137 45.9069 14.2 45.7123 14.6863 45.3233C16.437 43.5726 18.0904 42.3082 21.4945 42.3082H44.5452C46.1014 42.3082 47.3658 43.5726 47.3658 45.1288C47.3658 46.6849 46.1014 47.9493 44.5452 47.9493H32.3877C31.8041 47.9493 31.3178 48.2411 31.026 48.7274C30.7343 49.2137 30.7343 49.8945 31.026 50.3808C31.3178 50.8671 31.8041 51.1589 32.3877 51.1589H44.5452C47.8521 51.1589 50.5753 48.4356 50.5753 45.1288C50.5753 41.8219 47.8521 39.0986 44.5452 39.0986H21.3973C17.1178 39.0986 14.3945 41.0438 12.4493 42.989C12.0603 43.3781 11.8658 43.9616 11.963 44.4479C12.0603 45.0315 12.5466 45.5178 13.1301 45.7123Z" fill="#1C9EC6"/>
<path d="M65.4562 33.263C64.3863 32.1932 62.9274 31.6096 61.4685 31.6096C59.9123 31.6096 58.5507 32.1932 57.4808 33.263L51.0616 39.6822C50.6726 40.0713 50.4781 40.6548 50.5753 41.2384C50.7699 41.8219 51.1589 42.3082 51.7425 42.4055C52.326 42.5028 52.8123 42.4055 53.2014 41.9192L59.6205 35.5C60.5932 34.5274 62.2466 34.5274 63.2192 35.5C63.7055 35.9863 63.9 36.4726 63.8027 37.1535C63.8027 37.8343 63.511 38.6124 63.0247 39.2932C60.9822 42.211 56.3137 49.0192 53.6877 52.7151C51.8397 55.4384 49.6027 56.7028 46.6849 56.7028H28.011C25.9685 56.7028 24.6068 57.5781 23.6342 58.2589L9.33699 43.9617C8.75342 43.3781 7.68356 43.3781 7.1 43.9617L0.486301 50.5754C0.194521 50.8672 0 51.2562 0 51.7425C0 52.1315 0.194521 52.5206 0.486301 52.9096L18.0904 70.5137C18.3822 70.8055 18.7712 71 19.1603 71C19.5493 71 19.9384 70.8055 20.3274 70.5137L26.9411 63.9C27.5247 63.3165 27.5247 62.2466 26.9411 61.663L25.8712 60.5932C26.4548 60.2041 27.0384 59.9124 28.011 59.9124H46.6849C50.5753 59.9124 53.8822 58.0644 56.2164 54.563C59.426 49.9918 63.6082 43.8644 65.5534 41.1411C66.4288 39.8767 66.9151 38.6124 66.9151 37.2507C67.0123 35.6946 66.526 34.3329 65.4562 33.263ZM23.537 62.6356L19.1603 67.0124L3.79315 51.6452L8.16986 47.2685L23.537 62.6356Z" fill="#1C9EC6"/>
</svg>
