<svg width="55" height="55" viewBox="0 0 55 55" fill="none" xmlns="http://www.w3.org/2000/svg">
<path d="M44.7264 6.01889H51.0566V1.24531H35.6981V16.6038H40.4717V8.71701C46.5943 12.9717 50.3302 19.9246 50.3302 27.5C50.3302 40.0566 40.1604 50.3302 27.5 50.3302H26.4622V55H27.5C42.6509 55 55 42.651 55 27.5C55 18.9906 51.1604 11.2076 44.7264 6.01889Z" fill="#1C9EC6"/>
<path d="M27.5 0C12.3491 0 0 12.3491 0 27.5C0 34.5566 2.69811 41.1981 7.4717 46.283H1.34906V50.9528H16.6038V35.6981H11.934V44.1038C7.36792 39.8491 4.77358 33.8302 4.77358 27.5C4.77358 14.9434 14.9434 4.66981 27.6038 4.66981H28.6415V0H27.5Z" fill="#32BCAD"/>
</svg>
