<svg width="80" height="34" viewBox="0 0 80 34" fill="none" xmlns="http://www.w3.org/2000/svg">
<mask id="mask0" mask-type="alpha" maskUnits="userSpaceOnUse" x="0" y="0" width="25" height="32">
<path fill-rule="evenodd" clip-rule="evenodd" d="M0 0H24.2134V31.1897H0V0Z" fill="white"/>
</mask>
<g mask="url(#mask0)">
<path fill-rule="evenodd" clip-rule="evenodd" d="M20.7661 15.8434C22.8633 14.2405 24.2134 11.6926 24.2134 8.82972C24.2134 3.98716 20.336 0.0608786 15.5491 0.0502151L0 0L0.126365 31.1898L20.7661 15.8434Z" fill="#303D63"/>
</g>
<path fill-rule="evenodd" clip-rule="evenodd" d="M25.0412 17.4447L3.63623 33.513H15.2292C15.5335 33.5159 15.756 33.513 16.0235 33.513C21.7488 33.513 27.6362 30.2951 27.6362 23.9283C27.6362 20.7166 26.6489 18.7452 25.0412 17.4447Z" fill="#303D63"/>
<path fill-rule="evenodd" clip-rule="evenodd" d="M74.3874 13.7801C73.8275 15.533 72.3478 16.4095 70.5484 16.4095C70.0848 16.4095 69.5993 16.3596 69.198 16.2843L70.8131 11.1254H72.2852C74.0848 11.1254 74.9227 12.0018 74.3874 13.7801ZM59.5301 13.7801C58.9702 15.533 57.4905 16.4095 55.6913 16.4095C55.2276 16.4095 54.742 16.3596 54.3405 16.2843L55.9558 11.1254H57.4281C59.2273 11.1254 60.0652 12.0018 59.5301 13.7801ZM44.4098 12.5279C44.1271 13.4293 43.3121 14.2058 41.9761 14.2058H39.8769L40.9269 10.85H43.0263C44.3623 10.85 44.6922 11.6263 44.4098 12.5279ZM42.8967 19.3647C42.5715 20.4165 41.6303 21.0927 40.2944 21.0927H39.8037C38.386 21.0927 37.9589 20.4666 38.5614 18.5633L38.8439 17.6617H41.3795C42.7155 17.6617 43.2191 18.3379 42.8967 19.3647ZM73.7185 7.21863H66.7663L65.0699 12.6346C65.5797 9.21093 63.3081 7.21863 58.8612 7.21863H51.9088L48.2648 18.8532C48.4299 17.2526 47.5571 16.2143 46.1856 15.7083C47.8826 15.1074 49.3662 13.6549 49.8913 11.9771C50.7815 9.12189 48.9572 7.21863 44.295 7.21863H36.7976L33.21 18.6384C31.9148 22.7957 33.1886 24.7491 37.4689 24.7491H39.2685C43.6115 24.7491 46.4551 23.1008 47.6672 20.7605L46.6611 23.9726C46.5011 24.4735 46.7459 24.7491 47.4547 24.7491H51.7079L53.168 20.0409C53.8591 20.2162 54.6125 20.3163 55.2939 20.3163C59.1328 20.3163 62.7104 18.3415 64.3097 15.0619L61.5186 23.9726C61.3586 24.4735 61.603 24.7491 62.312 24.7491H66.5652L68.0253 20.0409C68.7164 20.2162 69.4696 20.3163 70.1512 20.3163C74.4316 20.3163 78.3892 17.8621 79.6391 13.8801C80.9366 9.69788 78.6805 7.21863 73.7185 7.21863Z" fill="#303D63"/>
</svg>
