<svg width="65" height="65" viewBox="0 0 65 65" fill="none" xmlns="http://www.w3.org/2000/svg">
<path d="M38.4157 12.5447C35.8578 9.98914 32.5996 8.24928 29.0531 7.54509C25.5066 6.84089 21.8308 7.20397 18.4906 8.58842C15.1504 9.97288 12.2956 12.3166 10.2871 15.3232C8.27866 18.3298 7.20667 21.8644 7.20667 25.4802C7.20667 29.096 8.27866 32.6306 10.2871 35.6372C12.2956 38.6439 15.1504 40.9875 18.4906 42.372C21.8308 43.7565 25.5066 44.1195 29.0531 43.4153C32.5996 42.7111 35.8578 40.9713 38.4157 38.4157C41.8408 34.982 43.7643 30.3301 43.7643 25.4802C43.7643 20.6303 41.8408 15.9784 38.4157 12.5447ZM36.9901 36.9901C34.3273 39.6526 30.8237 41.3094 27.0763 41.6782C23.3288 42.0471 19.5694 41.1052 16.4386 39.013C13.3078 36.9208 10.9993 33.8078 9.90634 30.2044C8.81342 26.6009 9.00373 22.73 10.4449 19.2512C11.886 15.7723 14.4887 12.9008 17.8097 11.1258C21.1306 9.3508 24.9643 8.7822 28.6575 9.51687C32.3506 10.2515 35.6748 12.244 38.0636 15.1548C40.4525 18.0656 41.7581 21.7147 41.7581 25.4802C41.7639 27.6187 41.3455 29.7371 40.5271 31.7128C39.7087 33.6885 38.5065 35.4822 36.9901 36.9901Z" fill="#1C9EC6"/>
<path fill-rule="evenodd" clip-rule="evenodd" d="M38.7697 38.7688L38.7691 38.7694C36.1412 41.3949 32.794 43.1823 29.1505 43.9058C25.507 44.6292 21.7307 44.2562 18.2992 42.8339C14.8676 41.4116 11.9348 39.0038 9.87137 35.915C7.80797 32.8261 6.70667 29.1949 6.70667 25.4802C6.70667 21.7656 7.80797 18.1343 9.87137 15.0455C11.9348 11.9566 14.8676 9.54884 18.2992 8.12653C21.7307 6.70422 25.507 6.33121 29.1505 7.05466C32.794 7.77811 36.1412 9.56554 38.7691 12.191L38.4157 12.5447C35.8578 9.98914 32.5996 8.24928 29.0531 7.54509C25.5066 6.84089 21.8308 7.20397 18.4906 8.58843C15.1504 9.97288 12.2956 12.3166 10.2871 15.3232C8.27866 18.3298 7.20667 21.8644 7.20667 25.4802C7.20667 29.096 8.27866 32.6306 10.2871 35.6372C12.2956 38.6439 15.1504 40.9875 18.4906 42.372C21.8308 43.7565 25.5066 44.1195 29.0531 43.4153C32.5996 42.7111 35.8578 40.9713 38.4157 38.4157C41.8408 34.982 43.7643 30.3301 43.7643 25.4802C43.7643 20.6303 41.8408 15.9784 38.4157 12.5447L38.7697 12.1916C42.2883 15.719 44.2643 20.4979 44.2643 25.4802C44.2643 30.4625 42.2883 35.2414 38.7697 38.7688ZM41.2581 25.4816L41.2581 25.4802C41.2581 21.8304 39.9926 18.2934 37.6771 15.472C35.3617 12.6506 32.1396 10.7194 28.5599 10.0073C24.9802 9.29516 21.2643 9.84629 18.0454 11.5667C14.8264 13.2872 12.3036 16.0705 10.9068 19.4425C9.50993 22.8145 9.32547 26.5665 10.3848 30.0593C11.4442 33.552 13.6818 36.5694 16.7164 38.5973C19.7511 40.6252 23.395 41.5382 27.0273 41.1806C30.6596 40.8231 34.0556 39.2172 36.6366 36.6366L36.9901 36.9901C34.3273 39.6526 30.8237 41.3094 27.0763 41.6782C23.3288 42.0471 19.5694 41.1052 16.4386 39.013C13.3078 36.9208 10.9993 33.8078 9.90634 30.2044C8.81342 26.6009 9.00373 22.73 10.4449 19.2512C11.886 15.7723 14.4887 12.9008 17.8097 11.1258C21.1306 9.3508 24.9643 8.7822 28.6575 9.51687C32.3506 10.2515 35.6748 12.244 38.0636 15.1548C40.4525 18.0656 41.7581 21.7147 41.7581 25.4802C41.7639 27.6187 41.3455 29.7371 40.5271 31.7128C39.7087 33.6885 38.5065 35.4822 36.9901 36.9901L36.6375 36.6356C38.107 35.1743 39.272 33.436 40.0652 31.5214C40.8583 29.6068 41.2638 27.5539 41.2581 25.4816Z" fill="#1C9EC6"/>
<path d="M62.1375 53.2111L46.7571 37.7095C49.7154 32.5581 50.7017 26.5074 49.5326 20.6832C48.3635 14.8589 45.1186 9.65759 40.4016 6.04676C35.6845 2.43594 29.8164 0.661467 23.889 1.05344C17.9615 1.4454 12.3782 3.97713 8.17764 8.17764C3.97713 12.3782 1.4454 17.9615 1.05344 23.889C0.661467 29.8164 2.43594 35.6845 6.04676 40.4016C9.65759 45.1186 14.8589 48.3635 20.6832 49.5326C26.5074 50.7017 32.5581 49.7153 37.7095 46.7571L53.09 62.2605C54.29 63.4605 55.9175 64.1346 57.6146 64.1346C59.3117 64.1346 60.9392 63.4605 62.1393 62.2605C63.3393 61.0604 64.0134 59.4329 64.0134 57.7358C64.0134 56.0387 63.3393 54.4111 62.1393 53.2111H62.1375ZM60.712 60.8355C59.8897 61.6572 58.7748 62.1188 57.6123 62.1188C56.4498 62.1188 55.3349 61.6572 54.5126 60.8355L39.4525 45.6512C41.8786 43.9792 43.9792 41.8786 45.6512 39.4524L60.7125 54.6361C61.5343 55.4584 61.9959 56.5733 61.9959 57.7358C61.9959 58.8983 61.5337 60.0132 60.712 60.8355Z" fill="#1C9EC6"/>
<path fill-rule="evenodd" clip-rule="evenodd" d="M53.09 62.2605L37.7095 46.7571C32.5581 49.7153 26.5074 50.7017 20.6832 49.5326C14.8589 48.3635 9.65759 45.1186 6.04677 40.4016C2.43594 35.6845 0.661468 29.8164 1.05344 23.889C1.4454 17.9615 3.97713 12.3782 8.17765 8.17764C12.3782 3.97713 17.9615 1.4454 23.889 1.05344C29.8164 0.661468 35.6845 2.43594 40.4016 6.04676C45.1186 9.65759 48.3635 14.8589 49.5326 20.6832C50.7017 26.5074 49.7154 32.5581 46.7571 37.7095L62.1375 53.2111H62.1393C63.3393 54.4111 64.0134 56.0387 64.0134 57.7358C64.0134 59.4329 63.3393 61.0604 62.1393 62.2605C60.9392 63.4605 59.3117 64.1346 57.6146 64.1346C55.9175 64.1346 54.29 63.4605 53.09 62.2605ZM62.3464 52.7111L62.4928 52.8576C63.7866 54.1514 64.5134 55.9061 64.5134 57.7358C64.5134 59.5655 63.7866 61.3202 62.4928 62.614C61.199 63.9078 59.4443 64.6346 57.6146 64.6346C55.7849 64.6346 54.0302 63.9078 52.7364 62.614L52.735 62.6126L37.6231 47.3799C32.4404 50.251 26.4019 51.1905 20.5848 50.0228C14.6417 48.8299 9.33423 45.5188 5.64973 40.7055C1.96524 35.8922 0.15456 29.9044 0.554525 23.856C0.954491 17.8075 3.53787 12.1103 7.82409 7.82409C12.1103 3.53787 17.8075 0.954491 23.856 0.554525C29.9044 0.15456 35.8922 1.96524 40.7055 5.64973C45.5188 9.33423 48.8299 14.6417 50.0228 20.5848C51.1907 26.4029 50.2506 32.4425 47.3784 37.6258L62.3464 52.7111ZM60.7125 54.6361L45.6512 39.4524C45.5551 39.5919 45.4576 39.7303 45.3587 39.8675C43.8355 41.9816 41.981 43.8359 39.867 45.3591C39.7299 45.4579 39.5917 45.5553 39.4525 45.6512L54.5126 60.8355C55.3349 61.6572 56.4498 62.1188 57.6123 62.1188C58.7748 62.1188 59.8897 61.6572 60.712 60.8355C61.5337 60.0132 61.9959 58.8983 61.9959 57.7358C61.9959 56.5733 61.5343 55.4584 60.7125 54.6361ZM60.3584 60.4819C59.6299 61.2098 58.6421 61.6188 57.6123 61.6188C56.5826 61.6188 55.5951 61.21 54.8666 60.4824C54.8668 60.4826 54.8665 60.4822 54.8666 60.4824L40.2234 45.7184C42.332 44.1889 44.1856 42.3356 45.7156 40.2273L60.3576 54.9882L60.3589 54.9896C61.0869 55.7181 61.4959 56.7059 61.4959 57.7358C61.4959 58.7655 61.0864 59.7533 60.3584 60.4819Z" fill="#1C9EC6"/>
<path d="M44 25.5C44 35.7173 35.7173 44 25.5 44C15.2827 44 7 35.7173 7 25.5C7 15.2827 15.2827 7 25.5 7C35.7173 7 44 15.2827 44 25.5Z" fill="white"/>
<path d="M29.6 21.2001C29.6 21.8628 30.1373 22.4001 30.8 22.4001C31.4627 22.4001 32 21.8628 32 21.2001C32 19.8711 31.3126 18.5934 30.1141 17.6945C29.2954 17.0805 28.2882 16.6703 27.2 16.4958V15.2C27.2 14.5373 26.6627 14 26 14C25.3373 14 24.8 14.5373 24.8 15.2V16.4958C23.7118 16.6703 22.7045 17.0805 21.8859 17.6945C20.6874 18.5934 20 19.8711 20 21.2001C20 22.529 20.6874 23.8067 21.8859 24.7057C22.7046 25.3197 23.7118 25.7298 24.8 25.9043V30.657C23.4176 30.3192 22.4 29.4221 22.4 28.4001C22.4 27.7374 21.8627 27.2001 21.2 27.2001C20.5373 27.2001 20 27.7374 20 28.4001C20 29.729 20.6874 31.0067 21.8859 31.9057C22.7046 32.5197 23.7118 32.9298 24.8 33.1043V34.4122C24.8 35.075 25.3373 35.6122 26 35.6122C26.6627 35.6122 27.2 35.075 27.2 34.4122V33.1043C28.2882 32.9298 29.2955 32.5197 30.1141 31.9057C31.3126 31.0068 32 29.729 32 28.4001C32 27.0711 31.3126 25.7934 30.1141 24.8945C29.2954 24.2805 28.2882 23.8703 27.2 23.6958V18.9431C28.5824 19.281 29.6 20.1781 29.6 21.2001ZM22.4 21.2001C22.4 20.1781 23.4176 19.281 24.8 18.9431V23.457C23.4176 23.1192 22.4 22.2221 22.4 21.2001ZM29.6 28.4001C29.6 29.4221 28.5824 30.3192 27.2 30.657V26.1432C28.5824 26.481 29.6 27.3781 29.6 28.4001Z" fill="#32BCAD"/>
</svg>
