<svg width="55" height="55" viewBox="0 0 55 55" fill="none" xmlns="http://www.w3.org/2000/svg">
<path d="M3.22266 3.22266H12.8906V0H0V12.8906H3.22266V3.22266Z" fill="#1C9EC6"/>
<path d="M42.1094 0V3.22266H51.7773V12.8906H55V0H42.1094Z" fill="#1C9EC6"/>
<path d="M51.7773 51.7773H42.1094V55H55V42.1094H51.7773V51.7773Z" fill="#1C9EC6"/>
<path d="M3.22266 42.1094H0V55H12.8906V51.7773H3.22266V42.1094Z" fill="#1C9EC6"/>
<path d="M6.55273 6.44531V22.5586H22.666V12.8906H25.8887V9.66797H22.666V6.44531H6.55273ZM19.4434 19.3359H9.77539V9.66797H19.4434V19.3359Z" fill="#32BCAD"/>
<path d="M48.4473 48.3398V32.2266H42.002V29.0039H38.7793V32.2266H29.1113V35.4492H32.334V38.6719H29.1113V41.8945H32.334V48.3398H48.4473ZM35.5566 35.4492H45.2246V45.1172H35.5566V35.4492Z" fill="#32BCAD"/>
<path d="M16.2207 29.0039H22.666V25.7812H6.55273V29.0039H12.998V32.2266H9.77539V35.4492H12.998V41.8945H9.77539V45.1172H12.998V48.3398H29.1113V45.1172H25.8887V41.8945H22.666V45.1172H16.2207V41.8945H19.4434V38.6719H16.2207V29.0039Z" fill="#32BCAD"/>
<path d="M12.998 12.8906H16.2207V16.1133H12.998V12.8906Z" fill="#32BCAD"/>
<path d="M38.7793 12.8906H42.002V16.1133H38.7793V12.8906Z" fill="#32BCAD"/>
<path d="M42.002 22.5586H48.4473V6.44531H32.334V22.5586H38.7793V25.7812H42.002V22.5586ZM35.5566 19.3359V9.66797H45.2246V19.3359H35.5566Z" fill="#32BCAD"/>
<path d="M48.4473 29.0039V25.7812C47.6676 25.7812 42.7871 25.7812 42.002 25.7812V29.0039H48.4473Z" fill="#32BCAD"/>
<path d="M38.7793 38.6719H42.002V41.8945H38.7793V38.6719Z" fill="#32BCAD"/>
<path d="M25.8887 35.4492H29.1113V38.6719H25.8887V35.4492Z" fill="#32BCAD"/>
<path d="M19.4434 38.6719H22.666C22.666 37.8922 22.666 33.0117 22.666 32.2266H19.4434V38.6719Z" fill="#32BCAD"/>
<path d="M22.666 29.0039H25.8887V32.2266H22.666V29.0039Z" fill="#32BCAD"/>
<path d="M9.77539 35.4492H6.55273V41.8945H9.77539C9.77539 41.1149 9.77539 36.2343 9.77539 35.4492Z" fill="#32BCAD"/>
<path d="M6.55273 45.1172H9.77539V48.3398H6.55273V45.1172Z" fill="#32BCAD"/>
<path d="M25.8887 6.44531H29.1113V9.66797H25.8887V6.44531Z" fill="#32BCAD"/>
<path d="M25.8887 19.3359H29.1113C29.1113 18.5563 29.1113 13.6757 29.1113 12.8906H25.8887V19.3359Z" fill="#32BCAD"/>
<path d="M29.1113 25.7812V22.5586H25.8887V29.0039H38.7793V25.7812H29.1113Z" fill="#32BCAD"/>
</svg>
