<svg width="46" height="64" viewBox="0 0 46 64" fill="none" xmlns="http://www.w3.org/2000/svg">
<path d="M44.505 6.57727L23.575 0.252266C23.23 0.137266 22.77 0.137266 22.425 0.252266L1.495 6.57727C0.574999 6.80727 0 7.72726 0 8.64726V40.0423C0 52.8073 21.275 62.4673 22.195 62.8123C22.425 62.9273 22.77 63.0423 23 63.0423C23.345 63.0423 23.575 62.9273 23.805 62.8123C24.725 62.4673 46 52.8073 46 40.0423V8.64726C46 7.72726 45.425 6.80727 44.505 6.57727ZM41.86 40.0423C41.86 47.9773 28.98 55.7973 23 58.6723C17.02 55.7973 4.14 47.9773 4.14 40.0423V10.2573L23 4.50726L41.86 10.2573V40.0423Z" fill="#1C9EC6"/>
<path d="M33.35 21.7573C32.43 20.6073 30.705 20.4923 29.555 21.5273L21.045 30.0373L18.515 27.5073C17.48 26.7023 16.1 26.7023 15.065 27.5073C13.915 28.4273 13.8 30.1523 14.835 31.3023L19.32 35.7873C19.78 36.2473 20.47 36.5923 21.16 36.5923C21.85 36.5923 22.54 36.3623 23 35.7873L33.35 25.4373C34.155 24.2873 34.155 22.7923 33.35 21.7573Z" fill="#32BCAD"/>
</svg>
