<svg width="76" height="55" viewBox="0 0 76 55" fill="none" xmlns="http://www.w3.org/2000/svg">
<path d="M19.2832 55H15.4836V45.6908C15.4836 43.3161 13.5838 41.4162 11.209 41.4162H8.07427C5.69948 41.4162 3.79965 43.3161 3.79965 45.6908V55H0V45.6908C0 41.2262 3.60967 37.6166 8.07427 37.6166H11.209C15.6736 37.6166 19.2832 41.2262 19.2832 45.6908V55Z" fill="#1C9EC6"/>
<path d="M9.68913 35.8117C5.22454 35.8117 1.61487 32.2021 1.61487 27.7375C1.61487 23.2729 5.22454 19.6632 9.68913 19.6632C14.1537 19.6632 17.7634 23.2729 17.7634 27.7375C17.7634 32.1071 14.1537 35.8117 9.68913 35.8117ZM9.68913 23.3679C7.31435 23.3679 5.41452 25.2677 5.41452 27.6425C5.41452 30.0173 7.31435 31.9171 9.68913 31.9171C12.0639 31.9171 13.9637 30.0173 13.9637 27.6425C13.9637 25.2677 12.0639 23.3679 9.68913 23.3679Z" fill="#1C9EC6"/>
<path d="M75.9931 55H72.1935V45.6908C72.1935 43.3161 70.2936 41.4162 67.9189 41.4162H64.7841C62.4094 41.4162 60.5095 43.3161 60.5095 45.6908V55H56.7099V45.6908C56.7099 41.2262 60.3195 37.6166 64.7841 37.6166H67.9189C72.3834 37.6166 75.9931 41.2262 75.9931 45.6908V55Z" fill="#1C9EC6"/>
<path d="M66.304 35.8117C61.8394 35.8117 58.2298 32.2021 58.2298 27.7375C58.2298 23.2729 61.8394 19.6632 66.304 19.6632C70.7686 19.6632 74.3783 23.2729 74.3783 27.7375C74.4733 32.1071 70.7686 35.8117 66.304 35.8117ZM66.304 23.3679C63.9292 23.3679 62.0294 25.2677 62.0294 27.6425C62.0294 30.0173 63.9292 31.9171 66.304 31.9171C68.6788 31.9171 70.5786 30.0173 70.5786 27.6425C70.6736 25.2677 68.6788 23.3679 66.304 23.3679Z" fill="#1C9EC6"/>
<path d="M47.0207 35.3368H43.2211V26.0276C43.2211 23.6529 41.3213 21.753 38.9465 21.753H35.8118C33.437 21.753 31.5371 23.6529 31.5371 26.0276V35.3368H27.7375V26.0276C27.7375 21.563 31.3472 17.9534 35.8118 17.9534H38.9465C43.4111 17.9534 47.0207 21.563 47.0207 26.0276V35.3368Z" fill="#CCCCCC"/>
<path d="M37.4266 16.1485C32.962 16.1485 29.3524 12.5389 29.3524 8.07427C29.3524 3.60967 32.962 0 37.4266 0C41.8912 0 45.5009 3.60967 45.5009 8.07427C45.5009 12.5389 41.8912 16.1485 37.4266 16.1485ZM37.4266 3.70466C35.0518 3.70466 33.152 5.60449 33.152 7.97927C33.152 10.3541 35.0518 12.2539 37.4266 12.2539C39.8014 12.2539 41.7012 10.3541 41.7012 7.97927C41.7012 5.60449 39.8014 3.70466 37.4266 3.70466Z" fill="#CCCCCC"/>
<path d="M48.4456 39.8964L45.7858 42.6511L48.0656 44.8359H22.323V48.6356H47.6857L45.4059 50.9154L48.0656 53.6701L55.095 46.5458L48.4456 39.8964Z" fill="#32BCAD"/>
<path d="M26.8003 26.886L24.7777 28.1304L25.7732 29.7485L27.7957 28.5041L26.8003 26.886Z" fill="#1C9EC6"/>
<path d="M38.6615 19.5682L37.3316 20.4232L35.9067 19.5682L34.9568 21.1831L35.4317 21.4681L34.9568 21.848L35.9067 23.4629L37.2366 22.608L38.6615 23.4629L39.6114 21.848L39.1364 21.4681L39.6114 21.1831L38.6615 19.5682Z" fill="#1C9EC6"/>
<path d="M44.5712 15.9L40.8479 18.1871L41.8422 19.8059L45.5656 17.5189L44.5712 15.9Z" fill="#1C9EC6"/>
<path d="M32.7239 23.2261L29.0019 25.5149L29.997 27.1332L33.719 24.8444L32.7239 23.2261Z" fill="#1C9EC6"/>
<path d="M48.7958 13.2867L46.7722 14.5297L47.7666 16.1486L49.7901 14.9056L48.7958 13.2867Z" fill="#1C9EC6"/>
<path d="M47.7438 26.8496L46.7487 28.4681L48.7718 29.712L49.7669 28.0936L47.7438 26.8496Z" fill="#1C9EC6"/>
<path d="M41.8687 23.189L40.8736 24.8074L44.596 27.0962L45.5912 25.4777L41.8687 23.189Z" fill="#1C9EC6"/>
<path d="M29.9764 15.9368L28.9814 17.5552L32.7039 19.8436L33.6988 18.2252L29.9764 15.9368Z" fill="#1C9EC6"/>
<path d="M25.8014 13.3196L24.8061 14.9379L26.8289 16.182L27.8242 14.5637L25.8014 13.3196Z" fill="#1C9EC6"/>
</svg>
