<svg width="72" height="41" viewBox="0 0 72 41" fill="none" xmlns="http://www.w3.org/2000/svg">
<path d="M13.4768 9.07264H33.3837C34.3526 9.07264 35.1454 8.27989 35.1454 7.39905C35.1454 6.6063 34.5288 5.72546 33.4718 5.72546H13.4768C12.596 5.72546 11.8032 6.51822 11.8032 7.39905C11.8032 8.1918 12.4198 9.07264 13.4768 9.07264Z" fill="#32BCAD"/>
<path d="M20.6116 31.2697H7.5752C6.78245 31.2697 5.90161 31.8862 5.90161 32.9432C5.90161 33.736 6.5182 34.6168 7.5752 34.6168H20.6116C21.1401 34.6168 21.5805 34.4407 21.9328 34.0883C22.1971 33.8241 22.3732 33.3837 22.2851 33.0313C22.1971 32.0624 21.5805 31.2697 20.6116 31.2697Z" fill="#32BCAD"/>
<path d="M20.6115 18.4094H1.67359C0.880835 18.4094 0 19.026 0 20.083C0 21.14 0.880835 21.7566 1.67359 21.7566H20.5235C21.3162 21.7566 22.197 21.14 22.197 20.083C22.197 19.2903 21.5805 18.4094 20.6115 18.4094Z" fill="#32BCAD"/>
<path d="M46.2439 40.078L65.2699 40.1661C68.7932 40.1661 71.7 37.3474 71.7 33.8241V6.34201C71.7 2.81867 68.8813 0 65.2699 0H44.6584L42.9848 3.43526H65.1818C66.7673 3.43526 68.1766 4.75651 68.1766 6.34201V33.8241C68.1766 35.4096 66.8554 36.7308 65.1818 36.7308H26.8655L25.1919 40.1661L46.2439 40.078Z" fill="#1C9EC6"/>
<path d="M63.5083 25.1038V15.1504C59.7207 14.0934 57.0782 11.3628 56.0212 7.66327H40.9589L28.7153 32.5909H56.0212C57.0782 28.8914 59.6326 26.337 63.5083 25.1038ZM51.0885 23.6064C50.8242 25.1919 49.9434 26.337 48.3579 27.1297C48.1817 27.3059 48.0056 27.3059 47.8294 27.3059V29.508H44.4822V27.394C44.3061 27.394 44.218 27.394 44.1299 27.3059C44.0418 27.3059 44.0418 27.3059 43.9537 27.3059C43.161 27.2178 42.5444 26.9536 41.9278 26.6012C41.5755 26.337 41.2231 25.9846 41.3993 25.1919C41.5755 24.9276 41.6635 24.5753 41.6635 24.4872V24.3991L42.104 22.9898L43.3371 23.6064C44.1299 24.0468 44.7465 24.1349 45.5392 24.1349H45.6273C45.8035 24.1349 45.9796 24.0468 46.2439 23.9587L46.4201 23.8706C46.6843 23.7826 47.0366 23.5183 47.0366 23.166C47.1247 22.7256 46.9486 22.2851 46.5962 22.0209C46.1558 21.6685 45.7154 21.4924 45.0988 21.2281C44.3941 20.9639 43.6014 20.5235 42.7205 19.9069C41.8397 19.1141 41.3112 17.969 41.3112 16.824C41.3112 15.5908 41.9278 14.2695 42.9848 13.5649C43.4252 13.2125 43.8656 12.9483 44.5703 12.684V10.3058H47.8294V12.3317C47.9175 12.3317 48.0936 12.3317 48.1817 12.4198C48.2698 12.4198 48.3579 12.5079 48.446 12.5079H48.5341C48.8864 12.5959 49.2387 12.7721 49.503 12.8602L49.7672 12.9483C49.9434 13.0364 50.2077 13.2125 50.2957 13.4768C50.3838 13.741 50.4719 14.0053 50.3838 14.2695C50.2957 14.4457 50.2957 14.6219 50.2077 14.71C50.1196 14.8861 50.1196 14.9742 50.0315 15.1504L49.7672 17.0882L48.6221 16.5597C48.1817 16.2955 47.7413 16.1193 47.389 16.1193C46.6843 16.0312 46.1558 16.0312 45.7154 16.1193C45.275 16.2955 45.275 16.4716 45.0988 16.824C45.0988 16.912 45.0107 17.1763 45.4511 17.5286C45.8916 17.7048 46.332 17.969 46.9486 18.3214C47.1247 18.4095 47.3009 18.4975 47.5651 18.5856C48.0936 18.8499 48.7102 19.026 49.2387 19.4665C50.6481 20.3473 51.3527 21.8447 51.0885 23.6064Z" fill="#1C9EC6"/>
</svg>
